<svg xmlns="http://www.w3.org/2000/svg" width="424.099" height="379.748" viewBox="0 0 424.099 379.748">
  <g id="Group_4" data-name="Group 4" transform="translate(-2249 -56)">
    <g id="home" transform="translate(2249.001 33.825)">
      <g id="Group_2" data-name="Group 2">
        <g id="Group_1" data-name="Group 1">
          <path id="Path_1" data-name="Path 1" d="M351.191,401.923H72.9a8.126,8.126,0,0,1-8.129-8.129V242.262l-56.664-.114a8.128,8.128,0,0,1-5.731-13.875L206.1,24.546a8.253,8.253,0,0,1,7.047-2.276,8.133,8.133,0,0,1,5.731,3.942l47.43,47.43V58.5a8.126,8.126,0,0,1,8.129-8.129H322.2a8.127,8.127,0,0,1,8.129,8.129v79.156l91.39,91.4a8.124,8.124,0,0,1-5.747,13.875h-.016l-56.64-.114v150.98A8.11,8.11,0,0,1,351.191,401.923ZM81.03,385.666H343.063v-151a8.133,8.133,0,0,1,8.129-8.129h.016l45.105.089-79.855-79.863a8.122,8.122,0,0,1-2.382-5.747V66.628h-31.5V93.273A8.126,8.126,0,0,1,268.7,99.02L211.665,41.982,27.715,225.932l45.2.089a8.123,8.123,0,0,1,8.112,8.129S81.03,385.666,81.03,385.666Z" fill="#fff"/>
        </g>
      </g>
    </g>
    <path id="Path_2" data-name="Path 2" d="M227.868,171.378H212.53a5.973,5.973,0,0,0-5.965,5.908H184.241a79.191,79.191,0,0,0,.492-8.779,78.211,78.211,0,0,0-30.913-62.261L174.464,81.83a5.971,5.971,0,0,0,8.364-.74l9.9-11.712a17.009,17.009,0,0,0-25.977-21.963l-9.9,11.712a5.964,5.964,0,0,0,.66,8.37l-23.5,27.8A78.213,78.213,0,0,0,28.4,168.508a78.953,78.953,0,0,0,.913,11.95L4.422,183.408a5.013,5.013,0,0,0,0,9.957L33.7,196.836a77.93,77.93,0,0,0,7.434,14.447L31.054,226.539a5.013,5.013,0,0,0,7.6,6.428l11.31-10.555A78.162,78.162,0,0,0,178.34,199.487h28.226a5.973,5.973,0,0,0,5.965,5.908h15.338a17.008,17.008,0,1,0,0-34.017Zm-72.495,20.947c1-2.088,3.313-7.358,3.528-7.878h47.662v7.878Zm-8.624-65.08a127.029,127.029,0,0,1-62,108.825,71.108,71.108,0,0,1-11.042-4.626,117.014,117.014,0,0,0,39.534-33.075,3.56,3.56,0,0,0,.253-.3,111.422,111.422,0,0,0,12.673-20.952,116.858,116.858,0,0,0,11.18-49.877q0-.755-.01-1.508l8.847-10.463C146.558,119.248,146.749,123.252,146.749,127.246ZM98.333,160.779,84.375,177.286H74.059l17.412-20.593q3.5,1.918,6.862,4.085Zm5.92,4.091a110.635,110.635,0,0,1,13.922,12.3c-.02.04-.041.079-.062.119H93.753Zm58.725-92.748,6.015,5.086-44.665,52.826q-3.26-2.272-6.623-4.369Zm9.245-20.084a9.847,9.847,0,1,1,15.039,12.716l-9.133,10.8L163.09,62.839ZM35.559,168.508a71.05,71.05,0,0,1,93.5-67.366l-17.623,20.843A149,149,0,0,0,85.7,110.733a3.581,3.581,0,0,0-2.24,6.8A141.833,141.833,0,0,1,129.1,142.617q-.738,5.216-1.96,10.3a132.987,132.987,0,0,0-63.808-31.133,3.581,3.581,0,0,0-1.309,7.041,125.909,125.909,0,0,1,62.959,31.807q-1.564,4.895-3.574,9.606a116.622,116.622,0,0,0-53.157-30.4,3.581,3.581,0,0,0-1.8,6.933,109.387,109.387,0,0,1,18.449,6.6L64.68,177.286H56.267a3.662,3.662,0,0,0-.422.025l-19.418,2.3a71.877,71.877,0,0,1-.868-11.106Zm20.92,15.94H114.1q-2.469,4.05-5.278,7.878H56.479l-33.219-3.939Zm-14.6,13.358,7.57.9-3.969,6.007A70.9,70.9,0,0,1,41.875,197.806Zm15.636,1.682h6.524L47.017,215.37ZM55.2,217.527l19.329-18.04H103.1a109.781,109.781,0,0,1-36.707,27.558A71.03,71.03,0,0,1,55.2,217.527ZM94.4,238.456a134.455,134.455,0,0,0,41.213-43.667,133.545,133.545,0,0,0,18.3-67.543c0-4.05-.188-8.108-.551-12.139a71.043,71.043,0,0,1,24.212,53.4,71.959,71.959,0,0,1-.54,8.779H168.1c-1.352-2.3-2.772-4.58-4.24-6.8l0,0a149.115,149.115,0,0,0,3.759-15.4,3.581,3.581,0,0,0-7.039-1.321,141.862,141.862,0,0,1-7.663,26.364,142.1,142.1,0,0,1-6.481,13.995,143.175,143.175,0,0,1-37.923,45.358c-.649.017-1.3.036-1.949.036A70.914,70.914,0,0,1,94.4,238.456Zm47.473-23.485a109.577,109.577,0,0,1,3.874,12.823,70.638,70.638,0,0,1-24.391,10.175,150.454,150.454,0,0,0,20.517-23Zm10.1,8.2a116.637,116.637,0,0,0-5.229-15.358q2.606-4.083,4.945-8.325h1.636a126.158,126.158,0,0,1,6.3,16.277A70.573,70.573,0,0,1,151.97,223.17ZM164.933,209q-1.69-4.824-3.745-9.513h9.281A71.472,71.472,0,0,1,164.933,209Zm62.935-10.766H213.724V178.539h14.144a9.847,9.847,0,1,1,0,19.694Z" transform="translate(2339 149.553)" fill="#fff"/>
  </g>
</svg>
